# xmcd
#
# Track frame offsets:
#	150
#	12616
#	24063
#	35261
#	49301
#	60297
#	73347
#	85122
#	98913
#	112995
#	125999
#	138714
#	151953
#	165358
#	179647
#	191892
#	205206
#	218776
#	231616
#	243711
#	257248
#	266976
#	279216
#	292123
#	304286
#	317255
#	331344
#	344245
#
# Disc length: 4776 seconds
#
# Revision: 0
# Processed by: cddbd v1.5.1PL2 Copyright (c) Steve Scherf et al.
# Submitted via: MusicManager 7.3.0.0 
#
DISCID=b912a61c
DTITLE=Louis Jordan - Let The Good Times Roll - Anthology 1938-1953 #1
DYEAR=1900
DGENRE=blues
TTITLE0=Barnacle Bill The Sailor
TTITLE1=Doug The Jitterbug
TTITLE2=At The Swing Cat's Ball
TTITLE3=Honeysuckle Rose
TTITLE4=Two Little Squirrels
TTITLE5=Pan Pan
TTITLE6=Saxa-Woogie
TTITLE7=Boogie Woogie Comes To Town
TTITLE8=Rusty Dusty Blues
TTITLE9=I'm Gonna Move To The Outskirts Of Town
TTITLE10=Five Guys Named Moe
TTITLE11=Ration Blues
TTITLE12=Is you Is Or Is You Ain't My Baby
TTITLE13=Mop-Mop
TTITLE14=G.I. Jive
TTITLE15=Buzz Me Blues
TTITLE16=Caldonia
TTITLE17=Salt Pork, W. Va
TTITLE18=Don't Worry "Bout That Mule
TTITLE19=Stone Cold Dead In The Market
TTITLE20=Beware
TTITLE21=Choo Choo Ch' Boogie
TTITLE22=Ain' That Just Like A Woman
TTITLE23=Let The Good Times Roll
TTITLE24=Texas And Pacific
TTITLE25=What's The Use Of Getting Sober
TTITLE26=Ain't Nobody Here But Us Chickens
TTITLE27=I'm Gonna Move To The Outskirts Of Town
EXTD=
EXTT0=
EXTT1=
EXTT2=
EXTT3=
EXTT4=
EXTT5=
EXTT6=
EXTT7=
EXTT8=
EXTT9=
EXTT10=
EXTT11=
EXTT12=
EXTT13=
EXTT14=
EXTT15=
EXTT16=
EXTT17=
EXTT18=
EXTT19=
EXTT20=
EXTT21=
EXTT22=
EXTT23=
EXTT24=
EXTT25=
EXTT26=
EXTT27=
PLAYORDER=
